<?xml version="1.0" encoding="UTF-8" standalone="no"?> <svg xmlns="http://www.w3.org/2000/svg" viewBox="0 0 224.89 224.89"><title>decision_making</title><g id="decision_making"><path d="M166.8,175.89a20.14,20.14,0,0,1-8.73,8.37l-.21,1c-.49,2.29-.54,6.69,4.6,10.39l2.43,1.76-3.5,4.86L159,200.52c-6.53-4.71-7.47-10.48-7.27-14.15a34.45,34.45,0,0,1-6.47.59h-3v-6h3c11.42,0,15.79-5.77,17.46-10.12h0a31,31,0,0,0-47.94-22.68v6.27c4-1.17,13.29-2.93,19.88,3.28l2.18,2.06-4.11,4.37-2.18-2.06c-5.67-5.33-15.35-1.48-15.45-1.44l-.32.13v43.69h-6V172.7c-2.18-.72-10-2.9-14.87,1.65l-2.18,2.05L87.56,172,89.75,170c6.14-5.79,14.61-4.66,19-3.53V147.74A31,31,0,0,0,61.3,172h0a25.38,25.38,0,0,1,13.36,19l.43,3-5.93.86-.43-3a19.29,19.29,0,0,0-2-6.34c-3.1,1.61-6.95,4.48-7.8,9l-.55,2.95-5.9-1.11.56-3c1-5.13,4.51-9.63,10-12.76a23.62,23.62,0,0,0-6.94-4.59,22.52,22.52,0,0,0,5.71,44.31c.34,0,.67,0,1-.05v0H86.54a13,13,0,0,0-7.74-10.33L76,209l2.14-5.56L81,204.5a18.93,18.93,0,0,1,11.6,15.94h34.93a18.93,18.93,0,0,1,11.6-15.94l2.8-1.06,2.13,5.61-2.79,1.06a13,13,0,0,0-7.73,10.33h28.27l.51,0,.51,0h.41v0a22.5,22.5,0,0,0,3.61-44.53Z"/><path d="M112.18,38.17a16.51,16.51,0,0,0,16.08-12.84,15.8,15.8,0,0,0,.42-3.66,16.51,16.51,0,0,0-2.71-9l3.77-4.43-4.57-3.89-3.38,4a16.49,16.49,0,1,0-9.61,29.89Zm0-27a10.41,10.41,0,0,1,5.7,1.7l-6,7.08-4.21-3.57L103.76,21l6.5,5.5a3,3,0,0,0,1.93.71,3,3,0,0,0,2.29-1.05l7.33-8.61a10.29,10.29,0,0,1,.87,4.16,10.5,10.5,0,1,1-10.5-10.5Z"/><path d="M220.26,72.76a16.52,16.52,0,1,0-.25,6,15.8,15.8,0,0,0,.42-3.66A16.42,16.42,0,0,0,220.26,72.76Zm-12.18-7.3-4.19,4.68-4.16-4.65a10.37,10.37,0,0,1,4.2-.89A10.48,10.48,0,0,1,208.08,65.46Zm-12.93,3.9,4.72,5.29-5.05,5.65a10.43,10.43,0,0,1,.33-10.94Zm4,15.09,4.73-5.3,4.76,5.32a10.45,10.45,0,0,1-9.49,0ZM213,80.35l-5.1-5.7,4.77-5.34a10.44,10.44,0,0,1,.33,11Z"/><path d="M21,58.65A16.5,16.5,0,1,0,37,78.81a15.8,15.8,0,0,0,.42-3.66A16.52,16.52,0,0,0,21,58.65Zm4.14,6.86L21,70.14l-4.14-4.63a10.39,10.39,0,0,1,8.28,0ZM12.21,69.36l4.73,5.29-5.09,5.69a10.42,10.42,0,0,1,.36-11Zm4,15.13L21,79.15l4.78,5.34a10.41,10.41,0,0,1-9.55,0Zm13.89-4.14L25,74.65l4.73-5.29a10.47,10.47,0,0,1,.37,11Z"/><polygon points="129.37 131.29 135.9 120.05 130.71 117.04 124.19 128.28 129.37 131.29"/><rect x="142.62" y="88.3" width="12.99" height="6" transform="matrix(0.5, -0.87, 0.87, 0.5, -4.67, 174.49)"/><path d="M159.74,79h0a2.52,2.52,0,0,1,2.16-1.24h3v2.78a3,3,0,0,0,5,2.18l6.26-5.88a3,3,0,0,0,.94-2.16,2.88,2.88,0,0,0-.9-2.17L170,66.35a3,3,0,0,0-5.09,2.15v3.23h-6.14a3,3,0,0,0-2.6,1.5L152.8,79,158,82Z"/><rect x="133.08" y="104.73" width="13.01" height="6" transform="matrix(0.5, -0.87, 0.87, 0.5, -23.64, 174.43)"/><rect x="109.27" y="65.2" width="6" height="67.24"/><path d="M121,57.24a3,3,0,0,0-.57-3.24l-5.89-6.26a3,3,0,0,0-2.15-1,2.94,2.94,0,0,0-2.18.9L104.12,54a3,3,0,0,0,2.14,5.1h12A3,3,0,0,0,121,57.24Z"/><rect x="70.45" y="84.8" width="6" height="12.99" transform="matrix(0.87, -0.5, 0.5, 0.87, -35.89, 49.17)"/><polygon points="93.2 131.29 98.38 128.28 91.86 117.04 86.67 120.05 93.2 131.29"/><rect x="79.99" y="101.23" width="6" height="13.01" transform="matrix(0.87, -0.5, 0.5, 0.87, -42.85, 56.17)"/><path d="M52.65,82.69a3,3,0,0,0,5.06-2.18V77.73h3A2.52,2.52,0,0,1,62.83,79h0l1.75,3,5.19-3-3.33-5.75a3,3,0,0,0-2.6-1.5H57.71V68.5a3,3,0,0,0-5.1-2.15l-6.26,6.13a2.88,2.88,0,0,0-.9,2.17,3,3,0,0,0,.94,2.16Z"/></g></svg>