<?xml version="1.0" encoding="utf-8"?>
<!-- Generator: Adobe Illustrator 23.0.2, SVG Export Plug-In . SVG Version: 6.00 Build 0)  -->
<svg version="1.1" id="Layer_1" xmlns="http://www.w3.org/2000/svg" xmlns:xlink="http://www.w3.org/1999/xlink" x="0px" y="0px"
	 viewBox="0 0 269.585 199.9697" enable-background="new 0 0 269.585 199.9697" xml:space="preserve">
<g>
	<path d="M21.7286,121.4263v68.1684c0,5.7286,4.6455,10.375,10.3769,10.375c5.7275,0,10.374-4.6464,10.374-10.375v-49.416h4.1133
		v49.416c0,5.7286,4.6465,10.375,10.377,10.375c5.7285,0,10.375-4.6464,10.375-10.375v-68.1684H21.7286z"/>
	<path d="M44.5362,54.5894c11.5508,0,20.9101-9.3633,20.9101-20.9121c0-11.5489-9.3593-20.9112-20.9101-20.9112
		c-11.5489,0-20.9092,9.3623-20.9092,20.9112C23.627,45.2261,32.9873,54.5894,44.5362,54.5894z"/>
	<path d="M6.9991,133.2456c0.082,0,0.164-0.0014,0.247-0.0044c3.8653-0.1343,6.8877-3.3764,6.753-7.2402l0.0029-0.0059
		c-0.0234-19.5991,2.4863-33.7124,5.9404-42.1718c0.5781-1.4361,1.1807-2.6885,1.7862-3.7906v36.3936h45.6162v-42.981
		c4.8359-0.3842,10.3662-1.4126,16.0791-4.1714c3.3935-1.6274,6.7656-3.8481,10.0595-6.7587
		c0.6094-0.5381,1.2159-1.1045,1.8194-1.6915v0.1324c0,2.7612,2.2402,5,5,5c2.7617,0,5-2.2388,5-5V48.1782
		c0.6758-1.0854,1.3408-2.2246,2-3.3969c0.3154-0.5616,0.6328-1.1182,0.9443-1.6997c1.4346-2.6651,0.959-5.8399-0.9443-7.9751
		c-0.5283-0.5928-1.1602-1.1099-1.8994-1.5083c-0.0332-0.0176-0.0674-0.0303-0.1006-0.0479V21.4561h2v-2.5h-14v2.5h2v16.0942
		c-0.669,1.1943-1.336,2.3301-2,3.3911c-5.6133,8.9658-11.0459,13.3296-15.9619,15.7241
		c-5.7022,2.7466-11.2579,3.0152-16.9727,3.0113c-0.2559,0-0.5078,0.0156-0.7568,0.0425H29.46
		c-0.249-0.0269-0.502-0.0425-0.7578-0.0425c-0.2959-0.002-0.5889,0.0288-0.8838,0.0425h-0.0908
		c-0.2168,0-0.4307,0.0126-0.6416,0.0351c-4.2774,0.3892-8.336,2.3999-11.4942,5.3911
		c-5.3779,5.0894-8.9922,12.5962-11.5966,22.6001C1.4287,97.7705,0.0059,110.4209,0,125.9951
		c0.002,0.0269-0.0029,0.1949,0.0078,0.4932C0.1377,130.2686,3.2452,133.2456,6.9991,133.2456z M103.3028,60.957
		c0,1.6534-1.3457,3-3,3c-1.6543,0-3-1.3466-3-3v-2.1835c2.0468-2.2061,4.0517-4.7144,6-7.5499V60.957z M103.3028,27.0122v5.8599
		c-2.1651-0.3828-4.3965,0.2812-6,1.7832v-7.6431H103.3028z"/>
	<rect x="180.6055" y="55.4385" width="11.418" height="4.5"/>
	<rect x="243.1875" y="55.4385" width="11.418" height="4.5"/>
	<rect x="206.0235" y="55.4385" width="4.582" height="4.5"/>
	<rect x="224.6055" y="55.4385" width="4.582" height="4.5"/>
	<rect x="180.6055" y="76.6885" width="11.418" height="4.5"/>
	<rect x="206.0235" y="76.6885" width="4.582" height="4.5"/>
	<rect x="243.1875" y="76.6885" width="11.418" height="4.5"/>
	<rect x="224.6055" y="76.6885" width="4.582" height="4.5"/>
	<circle cx="143.5586" cy="53.2197" r="1.5"/>
	<circle cx="140.8047" cy="12" r="2.25"/>
	<circle cx="141.8887" cy="2.25" r="2.25"/>
	<circle cx="147.1387" cy="7.667" r="2.25"/>
	<path d="M126.5821,93.3237l6.7949-30.6455c2.6435,2.333,6.1055,3.7603,9.9082,3.7603c3.8603,0,7.3682-1.4707,10.0273-3.8657
		l6.8164,30.7509l3.5801-0.7934l-7.3193-33.0098h4.9658v-3.666h-3.7314c0.4296-1.3965,0.663-2.8789,0.663-4.416
		c0-6.5283-4.1777-12.0664-10-14.1289V19.9385h2.0313v-3.2813h-14.0625v3.2813h2.0312v17.3711c-5.8222,2.0605-10,7.5996-10,14.1289
		c0,1.5371,0.2334,3.0195,0.6631,4.416h-3.5947v3.666h4.9658l-7.3174,33.0098L126.5821,93.3237z M143.2871,64.9365
		c-3.7187,0-7.0908-1.5117-9.5341-3.9521l0.3242-1.4639h2.0996c0.4463,0.3916,1.0234,0.6367,1.6631,0.6367
		c0.6387,0,1.2158-0.2451,1.6621-0.6367h4.7656c-0.0918,0.1939-0.1465,0.4082-0.1465,0.6367c0,0.8282,0.67,1.5,1.5,1.5
		c0.8291,0,1.5-0.6718,1.5-1.5c0-0.2285-0.0547-0.4428-0.1465-0.6367h5.6612l0.2969,1.3418
		C150.4805,63.3721,147.0655,64.9365,143.2871,64.9365z M143.5586,42.3447c0.8282,0,1.5,0.6719,1.5,1.5c0,0.8282-0.6718,1.5-1.5,1.5
		c-0.83,0-1.5-0.6718-1.5-1.5C142.0586,43.0166,142.7286,42.3447,143.5586,42.3447z M136.6836,44.001
		c1.1719,0,2.125,0.9512,2.125,2.125c0,1.1724-0.9531,2.125-2.125,2.125c-1.1758,0-2.125-0.9526-2.125-2.125
		C134.5586,44.9522,135.5078,44.001,136.6836,44.001z M129.7871,51.4375c6.1778,0,26.9981-5.6972,26.9981,0
		c0,1.5484-0.2754,3.0308-0.7568,4.417h-3.292c0.4101-0.4497,0.666-1.0415,0.666-1.6973c0-1.3989-1.1348-2.5312-2.5313-2.5312
		c-1.3984,0-2.5312,1.1323-2.5312,2.5312c0,0.6558,0.2558,1.2476,0.665,1.6973h-9.3603c-0.46-0.4683-1.0977-0.7598-1.8047-0.7598
		c-0.708,0-1.3457,0.2915-1.8057,0.7598h-5.4892C130.0625,54.4683,129.7871,52.9859,129.7871,51.4375z"/>
	<path d="M132.7305,93.439h21.25c0-2.8994-3.9687-5.291-9.125-5.6861v-9.0644h-3v9.0644
		C136.7002,88.1485,132.7305,90.5396,132.7305,93.439z"/>
	<ellipse cx="143.3555" cy="71.9385" rx="2.125" ry="5.125"/>
	<path d="M194.0235,87.2222c0,2.7617,2.2402,5,5,5c2.7617,0,5-2.2383,5-5V47.7217h2v-2.5h-14v2.5h2V87.2222z M196.0235,65.2227h6
		v21.9995c0,1.6543-1.3457,3-3,3c-1.6543,0-3-1.3457-3-3V65.2227z"/>
	<path d="M212.6055,87.2222c0,2.7617,2.2402,5,5,5c2.7617,0,5-2.2383,5-5V47.7217h2v-2.5h-14v2.5h2V87.2222z M220.6055,87.2222
		c0,1.6543-1.3457,3-3,3c-1.6543,0-3-1.3457-3-3V75.4385h6V87.2222z"/>
	<path d="M231.1875,87.2222c0,2.7617,2.2403,5,5,5c2.7627,0,5-2.2383,5-5V47.7217h2v-2.5h-14v2.5h2V87.2222z M239.1875,87.2222
		c0,1.6543-1.3457,3-3,3c-1.6543,0-3-1.3457-3-3V70.4385h6V87.2222z"/>
	<polygon points="261.252,199.7603 261.252,113.1592 269.585,113.1592 269.585,99.1592 80.92,99.1592 80.92,113.1592 
		89.252,113.1592 89.252,199.7603 99.252,199.7603 99.252,113.1592 251.252,113.1592 251.252,199.7603 	"/>
</g>
</svg>
