<?xml version="1.0" encoding="utf-8"?>
<!-- Generator: Adobe Illustrator 23.0.2, SVG Export Plug-In . SVG Version: 6.00 Build 0)  -->
<svg version="1.1" id="Layer_1" xmlns="http://www.w3.org/2000/svg" xmlns:xlink="http://www.w3.org/1999/xlink" x="0px" y="0px"
	 viewBox="0 0 178.0276 216.7031" enable-background="new 0 0 178.0276 216.7031" xml:space="preserve">
<g>
	<path d="M86.4824,216.7031c5.041,0,9.2422-3.6025,10.1758-8.373c-7.0254-0.1153-14.2081-0.7373-20.5274-1.4854
		C76.4013,212.332,80.9248,216.7031,86.4824,216.7031z"/>
	<path d="M111.3457,216.7031c5.5537,0,10.0781-4.3711,10.3486-9.8584c-6.3203,0.749-13.5029,1.3701-20.5283,1.4854
		C102.0996,213.1006,106.3007,216.7031,111.3457,216.7031z"/>
	<path d="M170.1074,53.2949c3.4863-3.1191,5.6504-5.1299,5.6845-5.1592c2.8331-2.6328,2.9952-7.0605,0.3633-9.8925
		c-2.6318-2.8321-7.0595-2.9952-9.8916-0.3623c-0.0019,0-0.6504,0.5996-1.8437,1.6884c-0.9532,0.8692-2.2608,2.0518-3.8174,3.4434
		c1.1865,1.6494,2.708,3.5068,4.3984,5.3389C166.6005,50.1103,168.3857,51.8291,170.1074,53.2949z"/>
	<path d="M95.75,78.4551l-3.2979,4.7011L80.8095,71.6523C63.9609,58.9766,58.914,50.2764,41.5761,38.832
		c0,3.7617-12.9179,18.4317-19.5146,20.4395c46.1787,25.8281,44.5283,44.6386,44.5283,44.6386s7.9756,81.377,1.791,88.5254
		c-6.1846,7.1446-11.5449,9.4024-11.5449,9.4024s22.2861,4.5137,42.0762,4.5137c19.791,0,42.0781-4.5137,42.0781-4.5137
		s-5.3594-2.2578-11.5449-9.4024c-6.1836-7.1484,1.789-88.5254,1.789-88.5254s-1.6484-18.8105,44.5323-44.6386
		c-6.5977-2.0078-19.5186-16.6778-19.5186-20.4395c-18.0762,11.9326-22.7842,20.8789-41.4473,34.4619l-9.9804,9.8623l-3.2979-4.7011
		l5.6328-5.0176H90.1181L95.75,78.4551z"/>
	<path d="M83.205,36.6387c-3.2285,3.6797-5.2011,8.4892-5.2011,13.7695c0,11.5508,9.3603,20.9141,20.9091,20.9141
		c11.5508,0,20.9102-9.3633,20.9102-20.9141c0-5.2822-1.9736-10.0928-5.2041-13.7734c-2.8457-1.9795-7.7549-4.1172-15.7031-4.1172
		C90.9599,32.5176,86.0498,34.6582,83.205,36.6387z"/>
	<path d="M79.4853,27.4648l-1.3672,11.4434c0,0,4.7969-8.3906,20.7949-8.3906h0.002c15.998,0,20.7959,8.3906,20.7959,8.3906
		l-1.3682-11.4434l20.5703-7.6289C109.8251,13.8633,98.915,0,98.915,0h-0.002c0,0-10.9121,13.8633-40,19.8359l5.9981,2.2246
		c-0.0059,0.4961-0.0176,1.212-0.0381,2.1172c-0.1201,5.4297-0.5557,17.5987-2.1123,29.1621
		c-0.0068,0.0518-0.0137,0.1045-0.0205,0.1563c0.0459-0.0205,0.0879-0.0332,0.1328-0.0508c2.5273-1.041,3.9326,0.6309,3.9326,0.6309
		l0.1309-29.1328l0.0097-2.129L79.4853,27.4648z"/>
	<path d="M25.2343,51.0596c0.7256,0.6572,1.5586,1.4082,2.4893,2.2402c1.4599-1.2441,2.9639-2.6719,4.3525-4.1514
		c1.9698-2.0322,3.792-4.249,5.1475-6.1347c-0.8711-0.7784-1.6553-1.4844-2.3477-2.1114c1.5069-1.5224,3.0703-3.0752,4.7002-4.667
		c0.2276-0.2216,0.4571-0.4453,0.6865-0.6679c4.1104-3.9951,8.6368-8.2373,13.7471-12.8721
		c0.6084-0.5518,0.793-1.3652,0.6738-2.2949c-0.0673-0.5195-0.2255-1.0733-0.4648-1.6416c-1.7158-4.0645-7.375-8.7588-9.9727-5.0694
		c-5.4277,7.7032-11.4121,15.3331-17.2841,22.3262c-1.9327-0.0439-3.8741,0.7002-5.292,2.2276
		c-1.544,1.6611-2.1182,3.8691-1.7647,5.9433C11.8525,53.2471,4.5761,60.5469,0,64.4434c0.2851,2.4101,4.6132,6.9023,7.4648,7.916
		c3.5644-4.5752,6.998-8.8516,10.5537-13.0586c0.3389-0.4014,0.6797-0.8018,1.0205-1.2022
		C21.0429,55.7519,23.0937,53.418,25.2343,51.0596z M46.4033,13.8848c0.7392-0.5508,4.0976,2.0898,5.2705,3.6699
		c1.1728,1.582,1.5234,3.3086,0.7832,3.8574c-0.1651,0.1221-0.374,0.166-0.6055,0.1582c0.2979-1.9746-2.4414-5.5-1.6719-3.5
		c0.6739,1.751-0.4199,1.835-1.1699,1.4961c-0.0049-0.0068-0.0107-0.0127-0.0156-0.0195
		C47.8203,17.9687,45.663,14.4336,46.4033,13.8848z"/>
</g>
</svg>
