<?xml version="1.0" encoding="UTF-8" standalone="no"?> <svg viewBox="0 0 64 64" fill="none" xmlns="http://www.w3.org/2000/svg">
<path d="M57 36H39C38.7348 36 38.4804 36.1054 38.2929 36.2929C38.1054 36.4804 38 36.7348 38 37V57H26V37C26 36.7348 25.8946 36.4804 25.7071 36.2929C25.5196 36.1054 25.2652 36 25 36H7C6.73478 36 6.48043 36.1054 6.29289 36.2929C6.10536 36.4804 6 36.7348 6 37V58C6 58.2652 6.10536 58.5196 6.29289 58.7071C6.48043 58.8946 6.73478 59 7 59H57C57.2652 59 57.5196 58.8946 57.7071 58.7071C57.8946 58.5196 58 58.2652 58 58V37C58 36.7348 57.8946 36.4804 57.7071 36.2929C57.5196 36.1054 57.2652 36 57 36Z" fill="url(#paint0_linear)"/>
<path d="M25.16 23.9999H8.00001C7.78194 23.9885 7.56614 24.0488 7.38557 24.1716C7.205 24.2944 7.06959 24.4729 7.00001 24.6799L3.00001 36.6799C2.95042 36.8303 2.93725 36.9903 2.96159 37.1468C2.98593 37.3032 3.04708 37.4517 3.14001 37.5799C3.23681 37.7162 3.36626 37.8261 3.5165 37.8995C3.66674 37.9728 3.83297 38.0074 4.00001 37.9999H25C25.2652 37.9999 25.5196 37.8945 25.7071 37.707C25.8946 37.5195 26 37.2651 26 36.9999V25.5399C26.0969 25.3889 26.1513 25.2147 26.1577 25.0354C26.1641 24.8562 26.1221 24.6785 26.0362 24.521C25.9503 24.3636 25.8237 24.2321 25.6695 24.1404C25.5154 24.0487 25.3394 24.0002 25.16 23.9999Z" fill="url(#paint1_linear)"/>
<path d="M60.9999 36.6799L56.9999 24.6799C56.9303 24.4729 56.7949 24.2944 56.6143 24.1716C56.4338 24.0488 56.218 23.9885 55.9999 23.9999H38.8399C38.6605 24.0002 38.4845 24.0487 38.3304 24.1404C38.1762 24.2321 38.0495 24.3636 37.9637 24.521C37.8778 24.6785 37.8358 24.8562 37.8422 25.0354C37.8486 25.2147 37.903 25.3889 37.9999 25.5399V36.9999C37.9999 37.2651 38.1052 37.5195 38.2928 37.707C38.4803 37.8945 38.7347 37.9999 38.9999 37.9999H59.9999C60.1585 37.9992 60.3147 37.9607 60.4556 37.8877C60.5964 37.8146 60.7179 37.7091 60.8099 37.5799C60.9113 37.456 60.9814 37.3096 61.0145 37.153C61.0476 36.9964 61.0426 36.8342 60.9999 36.6799Z" fill="url(#paint2_linear)"/>
<path d="M41 5H32C31.7348 5 31.4804 5.10536 31.2929 5.29289C31.1054 5.48043 31 5.73478 31 6V15C31 15.2652 31.1054 15.5196 31.2929 15.7071C31.4804 15.8946 31.7348 16 32 16C32.2652 16 32.5196 15.8946 32.7071 15.7071C32.8946 15.5196 33 15.2652 33 15V12H41C41.2652 12 41.5196 11.8946 41.7071 11.7071C41.8946 11.5196 42 11.2652 42 11V6C42 5.73478 41.8946 5.48043 41.7071 5.29289C41.5196 5.10536 41.2652 5 41 5Z" fill="url(#paint3_linear)"/>
<path d="M40 25.13C40.0047 25.0668 40.0047 25.0033 40 24.94C39.982 24.8734 39.9551 24.8095 39.92 24.75V24.67L32.92 14.44C32.8285 14.3039 32.705 14.1924 32.5603 14.1153C32.4155 14.0381 32.254 13.9978 32.09 13.9978C31.926 13.9978 31.7645 14.0381 31.6198 14.1153C31.475 14.1924 31.3515 14.3039 31.26 14.44L24.26 24.67V24.75C24.225 24.8095 24.198 24.8734 24.18 24.94C24.1753 25.0033 24.1753 25.0668 24.18 25.13C24.18 25.13 24.18 25.2 24.18 25.23V58C24.18 58.2653 24.2854 58.5196 24.4729 58.7071C24.6604 58.8947 24.9148 59 25.18 59H39C39.2652 59 39.5196 58.8947 39.7071 58.7071C39.8947 58.5196 40 58.2653 40 58V25.23C40 25.23 40 25.17 40 25.13Z" fill="url(#paint4_linear)"/>
<path d="M36 46H28C27.4477 46 27 46.4477 27 47V58C27 58.5523 27.4477 59 28 59H36C36.5523 59 37 58.5523 37 58V47C37 46.4477 36.5523 46 36 46Z" fill="url(#paint5_linear)"/>
<path d="M14 39H10C9.44772 39 9 39.4477 9 40V44C9 44.5523 9.44772 45 10 45H14C14.5523 45 15 44.5523 15 44V40C15 39.4477 14.5523 39 14 39Z" fill="url(#paint6_linear)"/>
<path d="M22 39H18C17.4477 39 17 39.4477 17 40V44C17 44.5523 17.4477 45 18 45H22C22.5523 45 23 44.5523 23 44V40C23 39.4477 22.5523 39 22 39Z" fill="url(#paint7_linear)"/>
<path d="M14 48H10C9.44772 48 9 48.4477 9 49V53C9 53.5523 9.44772 54 10 54H14C14.5523 54 15 53.5523 15 53V49C15 48.4477 14.5523 48 14 48Z" fill="url(#paint8_linear)"/>
<path d="M22 48H18C17.4477 48 17 48.4477 17 49V53C17 53.5523 17.4477 54 18 54H22C22.5523 54 23 53.5523 23 53V49C23 48.4477 22.5523 48 22 48Z" fill="url(#paint9_linear)"/>
<path d="M46 39H42C41.4477 39 41 39.4477 41 40V44C41 44.5523 41.4477 45 42 45H46C46.5523 45 47 44.5523 47 44V40C47 39.4477 46.5523 39 46 39Z" fill="url(#paint10_linear)"/>
<path d="M54 39H50C49.4477 39 49 39.4477 49 40V44C49 44.5523 49.4477 45 50 45H54C54.5523 45 55 44.5523 55 44V40C55 39.4477 54.5523 39 54 39Z" fill="url(#paint11_linear)"/>
<path d="M46 48H42C41.4477 48 41 48.4477 41 49V53C41 53.5523 41.4477 54 42 54H46C46.5523 54 47 53.5523 47 53V49C47 48.4477 46.5523 48 46 48Z" fill="url(#paint12_linear)"/>
<path d="M54 48H50C49.4477 48 49 48.4477 49 49V53C49 53.5523 49.4477 54 50 54H54C54.5523 54 55 53.5523 55 53V49C55 48.4477 54.5523 48 54 48Z" fill="url(#paint13_linear)"/>
<path d="M32 24C31.0111 24 30.0444 24.2932 29.2222 24.8427C28.3999 25.3921 27.759 26.173 27.3806 27.0866C27.0022 28.0002 26.9031 29.0055 27.0961 29.9755C27.289 30.9454 27.7652 31.8363 28.4645 32.5355C29.1637 33.2348 30.0546 33.711 31.0246 33.9039C31.9945 34.0969 32.9998 33.9978 33.9134 33.6194C34.8271 33.241 35.6079 32.6001 36.1574 31.7779C36.7068 30.9556 37 29.9889 37 29C37 27.6739 36.4732 26.4021 35.5355 25.4645C34.5979 24.5268 33.3261 24 32 24V24ZM32 32C31.4067 32 30.8266 31.8241 30.3333 31.4944C29.8399 31.1648 29.4554 30.6962 29.2284 30.1481C29.0013 29.5999 28.9419 28.9967 29.0576 28.4147C29.1734 27.8328 29.4591 27.2982 29.8787 26.8787C30.2982 26.4591 30.8328 26.1734 31.4147 26.0576C31.9967 25.9419 32.5999 26.0013 33.1481 26.2284C33.6962 26.4554 34.1648 26.8399 34.4944 27.3333C34.8241 27.8266 35 28.4067 35 29C35 29.7956 34.6839 30.5587 34.1213 31.1213C33.5587 31.6839 32.7957 32 32 32Z" fill="url(#paint14_linear)"/>
<path d="M32 27C31.7348 27 31.4804 27.1054 31.2929 27.2929C31.1054 27.4804 31 27.7348 31 28V29C31 29.2652 31.1054 29.5196 31.2929 29.7071C31.4804 29.8946 31.7348 30 32 30C32.2652 30 32.5196 29.8946 32.7071 29.7071C32.8946 29.5196 33 29.2652 33 29V28C33 27.7348 32.8946 27.4804 32.7071 27.2929C32.5196 27.1054 32.2652 27 32 27Z" fill="url(#paint15_linear)"/>
<path d="M60 59H4C3.73478 59 3.48043 58.8946 3.29289 58.7071C3.10536 58.5196 3 58.2652 3 58C3 57.7348 3.10536 57.4804 3.29289 57.2929C3.48043 57.1054 3.73478 57 4 57H60C60.2652 57 60.5196 57.1054 60.7071 57.2929C60.8946 57.4804 61 57.7348 61 58C61 58.2652 60.8946 58.5196 60.7071 58.7071C60.5196 58.8946 60.2652 59 60 59Z" fill="url(#paint16_linear)"/>
<path d="M17.3701 26.58C15.6701 24.68 10.9501 30.85 12.3701 32.28C14.0001 34.18 18.7701 28 17.3701 26.58Z" fill="white"/>
<path d="M9.66009 35.2901C8.26009 37.2901 9.28009 39.0001 10.9401 36.5901C12.3401 34.5601 11.3201 32.8801 9.66009 35.2901Z" fill="white"/>
<defs>
<linearGradient id="paint0_linear" x1="6" y1="47.5" x2="58" y2="47.5" gradientUnits="userSpaceOnUse">
<stop stop-color="#B7D389"/>
<stop offset="0.22" stop-color="#A1C571"/>
<stop offset="0.69" stop-color="#69A134"/>
<stop offset="1" stop-color="#418808"/>
</linearGradient>
<linearGradient id="paint1_linear" x1="3.00001" y1="30.9999" x2="26.16" y2="30.9999" gradientUnits="userSpaceOnUse">
<stop stop-color="#418607"/>
<stop offset="0.91" stop-color="#206507"/>
<stop offset="1" stop-color="#1D6207"/>
</linearGradient>
<linearGradient id="paint2_linear" x1="915.522" y1="23.9985" x2="1452.71" y2="23.9985" gradientUnits="userSpaceOnUse">
<stop stop-color="#418607"/>
<stop offset="0.91" stop-color="#206507"/>
<stop offset="1" stop-color="#1D6207"/>
</linearGradient>
<linearGradient id="paint3_linear" x1="372" y1="120.5" x2="493" y2="120.5" gradientUnits="userSpaceOnUse">
<stop stop-color="#418607"/>
<stop offset="0.91" stop-color="#206507"/>
<stop offset="1" stop-color="#1D6207"/>
</linearGradient>
<linearGradient id="paint4_linear" x1="404.025" y1="1657.03" x2="657.257" y2="1657.03" gradientUnits="userSpaceOnUse">
<stop stop-color="#B7D389"/>
<stop offset="0.22" stop-color="#A1C571"/>
<stop offset="0.69" stop-color="#69A134"/>
<stop offset="1" stop-color="#418808"/>
</linearGradient>
<linearGradient id="paint5_linear" x1="297" y1="728.5" x2="397" y2="728.5" gradientUnits="userSpaceOnUse">
<stop stop-color="#418607"/>
<stop offset="0.91" stop-color="#206507"/>
<stop offset="1" stop-color="#1D6207"/>
</linearGradient>
<linearGradient id="paint6_linear" x1="63" y1="291" x2="99" y2="291" gradientUnits="userSpaceOnUse">
<stop stop-color="#418607"/>
<stop offset="0.91" stop-color="#206507"/>
<stop offset="1" stop-color="#1D6207"/>
</linearGradient>
<linearGradient id="paint7_linear" x1="119" y1="291" x2="155" y2="291" gradientUnits="userSpaceOnUse">
<stop stop-color="#418607"/>
<stop offset="0.91" stop-color="#206507"/>
<stop offset="1" stop-color="#1D6207"/>
</linearGradient>
<linearGradient id="paint8_linear" x1="63" y1="354" x2="99" y2="354" gradientUnits="userSpaceOnUse">
<stop stop-color="#418607"/>
<stop offset="0.91" stop-color="#206507"/>
<stop offset="1" stop-color="#1D6207"/>
</linearGradient>
<linearGradient id="paint9_linear" x1="119" y1="354" x2="155" y2="354" gradientUnits="userSpaceOnUse">
<stop stop-color="#418607"/>
<stop offset="0.91" stop-color="#206507"/>
<stop offset="1" stop-color="#1D6207"/>
</linearGradient>
<linearGradient id="paint10_linear" x1="287" y1="291" x2="323" y2="291" gradientUnits="userSpaceOnUse">
<stop stop-color="#418607"/>
<stop offset="0.91" stop-color="#206507"/>
<stop offset="1" stop-color="#1D6207"/>
</linearGradient>
<linearGradient id="paint11_linear" x1="343" y1="291" x2="379" y2="291" gradientUnits="userSpaceOnUse">
<stop stop-color="#418607"/>
<stop offset="0.91" stop-color="#206507"/>
<stop offset="1" stop-color="#1D6207"/>
</linearGradient>
<linearGradient id="paint12_linear" x1="287" y1="354" x2="323" y2="354" gradientUnits="userSpaceOnUse">
<stop stop-color="#418607"/>
<stop offset="0.91" stop-color="#206507"/>
<stop offset="1" stop-color="#1D6207"/>
</linearGradient>
<linearGradient id="paint13_linear" x1="343" y1="354" x2="379" y2="354" gradientUnits="userSpaceOnUse">
<stop stop-color="#418607"/>
<stop offset="0.91" stop-color="#206507"/>
<stop offset="1" stop-color="#1D6207"/>
</linearGradient>
<linearGradient id="paint14_linear" x1="297" y1="314" x2="397" y2="314" gradientUnits="userSpaceOnUse">
<stop stop-color="#418607"/>
<stop offset="0.91" stop-color="#206507"/>
<stop offset="1" stop-color="#1D6207"/>
</linearGradient>
<linearGradient id="paint15_linear" x1="93" y1="112.5" x2="97" y2="112.5" gradientUnits="userSpaceOnUse">
<stop stop-color="#418607"/>
<stop offset="0.91" stop-color="#206507"/>
<stop offset="1" stop-color="#1D6207"/>
</linearGradient>
<linearGradient id="paint16_linear" x1="177" y1="173" x2="3541" y2="173" gradientUnits="userSpaceOnUse">
<stop stop-color="#418607"/>
<stop offset="0.91" stop-color="#206507"/>
<stop offset="1" stop-color="#1D6207"/>
</linearGradient>
</defs>
</svg>
