<?xml version="1.0" encoding="UTF-8" standalone="no"?> <svg xmlns="http://www.w3.org/2000/svg" viewBox="0 0 64 64"><g id="Layer_39" data-name="Layer 39"><path d="M60,55H56.84V51.93a1,1,0,0,0-1-1H53.28V28h2.39a1,1,0,0,0,.83-.43l1.82-2.64A1,1,0,0,0,58,23.52L32.54,7.16a1,1,0,0,0-1.08,0L6,23.52a1,1,0,0,0-.29,1.41l1.83,2.64a1,1,0,0,0,.82.43h2.39V50.93H8.15a1,1,0,0,0-1,1V55H4a1,1,0,0,0,0,2H60A1,1,0,0,0,60,55Zm-8.72-4.07H49.73V28h1.55Zm-7.25,0V28h3.7V50.93Zm-9.26,0V28h3.71V50.93Zm-9.25,0V28h3.71V50.93Zm-9.25,0V28H20V50.93ZM22,28h1.55V50.93H22Zm9.26,0h1.54V50.93H31.23Zm9.25,0H42V50.93H40.48ZM7.92,24.64,32,9.19,56.08,24.64,55.15,26H8.85ZM12.72,28h1.55V50.93H12.72ZM9.15,55V52.93H54.84V55Z"/><path d="M32,25.32c7.71-.24,7.7-11.41,0-11.66C24.29,13.91,24.3,25.08,32,25.32Zm0-9.66c5,.13,5,7.53,0,7.66C27,23.19,27,15.79,32,15.66Z"/></g></svg>